<svg width="30" height="20" viewBox="0 0 30 20" fill="none" xmlns="http://www.w3.org/2000/svg">
<path d="M10.3444 19.2L11.2044 16.88L0.204374 11.54V9.28L8.96437 5.02V7.1L2.98437 9.94C2.74437 10.06 2.51771 10.16 2.30437 10.24C2.07771 10.32 1.90437 10.3733 1.78437 10.4C1.90437 10.4267 2.07771 10.48 2.30437 10.56C2.51771 10.6267 2.74437 10.72 2.98437 10.84L11.8644 15.14L17.3844 0.399999H19.6244L18.4044 3.7L29.7644 9.28V11.54L21.0044 15.8V13.76L26.9844 10.9C27.251 10.78 27.5044 10.68 27.7444 10.6C27.9844 10.52 28.1644 10.4667 28.2844 10.44C28.151 10.4133 27.9577 10.36 27.7044 10.28C27.4644 10.1867 27.2244 10.08 26.9844 9.96L17.7444 5.46L12.5844 19.2H10.3444Z" fill="#F7F7F7"/>
</svg>
